# xmcd CD database file
#
# Track frame offsets:
#	151
#	18664
#	31539
#	42039
#	53827
#	65164
#	76327
#	87414
#	98352
#	108289
#	120064
#	132839
#	146089
#	157814
#	169064
#	180214
#	191227
#	202564
#	216127
#	230377
#
# Disc length: 3226 seconds
#
# Revision: 0
# Processed by: cddbd v1.5.2PL0 Copyright (c) Steve Scherf et al.
# Submitted via: CDex 1.51
#
DISCID=f10c9814
DTITLE=Brook Benton - The Best of Brook Benton
DYEAR=1900
DGENRE=Blues
TTITLE0=Rainy Night In Georgia
TTITLE1=Think Twice
TTITLE2=The Same One
TTITLE3=Hotel Happiness
TTITLE4=So Many Ways
TTITLE5=Endlessly
TTITLE6=Revenge
TTITLE7=Thank You Pretty Baby
TTITLE8=Lie To Me
TTITLE9=Kiddio
TTITLE10=The Boll Weevil Song
TTITLE11=Baby (You've Got What It Takes)
TTITLE12=My True Confession
TTITLE13=It's Just A Matter Of Time
TTITLE14=A Rockin' Good Way
TTITLE15=Frankie And Johnny
TTITLE16=It's Just A House Without You
TTITLE17=I Got What I Wanted
TTITLE18=For My Baby
TTITLE19=So Close
EXTD=
EXTT0=
EXTT1=
EXTT2=
EXTT3=
EXTT4=
EXTT5=
EXTT6=
EXTT7=
EXTT8=
EXTT9=
EXTT10=
EXTT11=
EXTT12=
EXTT13=
EXTT14=
EXTT15=
EXTT16=
EXTT17=
EXTT18=
EXTT19=
PLAYORDER=
